# xmcd
#
# Track frame offsets:
#	150
#	9223
#	23160
#	39148
#	50740
#	61488
#	72380
#	84608
#	94120
#	105783
#	117830
#	133868
#	146275
#	159638
#
# Disc length: 2304 seconds
#
# Revision: 1
# Processed by: cddbd v1.5.1PL0 Copyright (c) Steve Scherf et al.
# Submitted via: dBpowerAMP V4.0
#
DISCID=af08fe0e
DTITLE=Allen Fontenot And The Country Cajuns - Cajun Country
DYEAR=1993
DGENRE=Country
TTITLE0=Lafayette
TTITLE1=Dance Colinda
TTITLE2=Cajun Love Song
TTITLE3=Old Joe Pete
TTITLE4=Kush-Kush Two Step
TTITLE5=Break my heart slowly
TTITLE6=Jole Blon
TTITLE7=Jitty Bug Two Step
TTITLE8=Do the Boogie Woogie
TTITLE9=Rhode Island Stomp
TTITLE10=Matilda
TTITLE11=La Valse de Vieu Temp
TTITLE12=La Belle Valse
TTITLE13=Great Scott
EXTD=Spoetnik
EXTT0=
EXTT1=
EXTT2=
EXTT3=
EXTT4=
EXTT5=
EXTT6=
EXTT7=
EXTT8=
EXTT9=
EXTT10=
EXTT11=
EXTT12=
EXTT13=
PLAYORDER=
